
        <svg xmlns="http://www.w3.org/2000/svg" xmlns:xlink="http://www.w3.org/1999/xlink" version="1.1" width="3200" 
        height="1750.4425321029282" viewBox="0 0 3200 1750.4425321029282">
			
			<g transform="scale(10) translate(10, 10)">
				<defs id="SvgjsDefs2926"></defs><g id="SvgjsG2927" featureKey="e7LhAk-0" transform="matrix(1.5000041198843623,0,0,1.5000041198843623,75.00052934326101,-32.46158169684914)" fill="#111111"><path xmlns="http://www.w3.org/2000/svg" fill="#111111" d="M70.885,64.408c-8.142-1.879-15.72-3.523-12.048-10.441c11.17-21.062,2.961-32.326-8.836-32.326  c-12.03,0-20.037,11.697-8.836,32.326c3.779,6.959-4.082,8.604-12.049,10.441c-6.583,1.518-7.431,4.617-7.515,9.867  c-0.034,2.254,1.832,4.084,4.087,4.084h48.623c2.256,0,4.123-1.83,4.088-4.084C78.316,69.025,77.469,65.926,70.885,64.408z"></path><g xmlns="http://www.w3.org/2000/svg"><path fill="#111111" d="M20.348,66.281c1.548-2.4,4.116-3.944,8.08-4.857l0.498-0.115c0.867-0.199,1.719-0.396,2.541-0.596   c-3.168-1.181-4.955-2.905-3.145-6.317c8.496-16.02,2.252-24.587-6.721-24.587c-9.15,0-15.24,8.897-6.721,24.587   c2.875,5.293-3.104,6.544-9.164,7.941c-5.007,1.153-5.651,3.512-5.716,7.505c-0.026,1.715,1.394,3.106,3.108,3.106h15.47   C18.702,70.361,19.114,68.193,20.348,66.281z"></path></g><g xmlns="http://www.w3.org/2000/svg"><path fill="#111111" d="M94.284,62.337c-6.192-1.429-11.956-2.679-9.164-7.941c8.496-16.02,2.253-24.587-6.72-24.587   c-9.15,0-15.24,8.897-6.721,24.587c1.853,3.412,0.026,5.144-3.129,6.319c0.872,0.212,1.776,0.421,2.7,0.634l0.321,0.074   c3.966,0.913,6.533,2.458,8.082,4.858c1.232,1.912,1.646,4.08,1.769,6.667h15.468c1.716,0,3.136-1.392,3.109-3.106   C99.937,65.849,99.292,63.49,94.284,62.337z"></path></g></g><g id="SvgjsG2928" featureKey="Qg0WB5-0" transform="matrix(2.9912880379059583,0,0,2.9912880379059583,-1.1928714250066221,94.44076186991713)" fill="#111111"><path d="M5.86 5.539999999999999 q0.01 -0.06 0.065 -0.13 t0.135 -0.13 t0.17 -0.095 t0.17 -0.035 l2.56 0 q0.17 0 0.29 0.105 t0.18 0.185 l0.25 0.57 l5.25 13.54 q0.08 0.2 -0.03 0.325 t-0.38 0.125 l-2.87 0 q-0.23 0 -0.355 -0.085 t-0.195 -0.285 q-0.2 -0.51 -0.39 -1.015 t-0.38 -1.015 l-5.31 0 q-0.19 0.51 -0.385 1.015 t-0.385 1.015 q-0.13 0.37 -0.51 0.37 l-2.95 0 q-0.19 0 -0.315 -0.1 t-0.045 -0.3 z M7.68 9.82 q-0.19 0.51 -0.385 1.1 t-0.385 1.19 t-0.385 1.185 t-0.385 1.095 l3.07 0 z M20.060000000000002 19.23 q-0.09 0.19 -0.15 0.335 t-0.135 0.24 t-0.185 0.145 t-0.3 0.05 l-1.98 0 q-0.8 0 -0.8 -0.77 l0 -14.94 q0 -0.17 0.065 -0.31 t0.17 -0.24 t0.24 -0.155 t0.265 -0.055 l2.27 0 q0.38 0 0.6 0.22 t0.22 0.54 l0 4.56 q0.28 -0.3 0.6 -0.61 t0.695 -0.565 t0.825 -0.415 t1 -0.16 q1.36 0 2.505 0.505 t1.97 1.39 t1.29 2.08 t0.465 2.585 q0 1.38 -0.465 2.58 t-1.29 2.085 t-1.97 1.395 t-2.505 0.51 q-0.51 0 -0.96 -0.175 t-0.84 -0.445 t-0.72 -0.58 t-0.6 -0.58 z M26.09 13.66 q0 -0.64 -0.205 -1.22 t-0.585 -1.02 t-0.91 -0.695 t-1.19 -0.255 t-1.235 0.255 t-0.995 0.695 t-0.665 1.02 t-0.245 1.22 l0 0.14 q0.03 0.63 0.285 1.18 t0.675 0.955 t0.98 0.635 t1.2 0.23 q0.66 0 1.19 -0.245 t0.91 -0.665 t0.585 -0.995 t0.205 -1.235 z M31.32 13.66 q0 -0.92 0.235 -1.77 t0.66 -1.575 t1.02 -1.32 t1.325 -1.015 t1.575 -0.65 t1.765 -0.23 q1.36 0 2.555 0.505 t2.08 1.39 t1.4 2.08 t0.515 2.585 q0 0.92 -0.235 1.765 t-0.66 1.575 t-1.02 1.325 t-1.325 1.02 t-1.565 0.655 t-1.745 0.23 q-0.92 0 -1.765 -0.23 t-1.575 -0.655 t-1.325 -1.02 t-1.02 -1.325 t-0.66 -1.575 t-0.235 -1.765 z M34.97 13.66 q0 0.66 0.205 1.235 t0.58 0.995 t0.91 0.665 t1.205 0.245 q0.65 0 1.175 -0.245 t0.89 -0.665 t0.56 -0.995 t0.195 -1.235 q0 -0.64 -0.195 -1.22 t-0.56 -1.02 t-0.89 -0.695 t-1.175 -0.255 q-0.67 0 -1.205 0.255 t-0.91 0.695 t-0.58 1.02 t-0.205 1.22 z M58.230000000000004 19.83 q-0.13 0.11 -0.275 0.14 t-0.275 0.03 l-1.51 0 q-0.18 0 -0.31 -0.065 t-0.22 -0.175 t-0.15 -0.25 t-0.1 -0.29 l-0.31 -1.28 q-0.15 0.31 -0.435 0.705 t-0.725 0.74 t-1.05 0.58 t-1.4 0.235 q-1.14 0 -2.07 -0.44 t-1.585 -1.2 t-1.015 -1.775 t-0.36 -2.165 l0 -6.55 q0 -0.38 0.165 -0.575 t0.525 -0.195 l2.31 0 q0.43 0 0.59 0.145 t0.16 0.565 l0 6.51 q0 0.43 0.195 0.815 t0.515 0.68 t0.725 0.465 t0.825 0.17 q0.36 0 0.745 -0.17 t0.71 -0.455 t0.535 -0.67 t0.21 -0.815 l0 -6.5 q0 -0.17 0.065 -0.34 t0.195 -0.26 q0.13 -0.08 0.245 -0.11 t0.265 -0.03 l2.26 0 q0.43 0 0.62 0.21 t0.19 0.56 l0 11.19 q0 0.19 -0.085 0.35 t-0.235 0.25 z M61.660000000000004 5.32 q0 -0.31 0.205 -0.465 t0.585 -0.295 l2.27 -0.79 q0.05 -0.01 0.095 -0.01 l0.085 0 q0.37 0 0.495 0.215 t0.125 0.565 l-0.01 3.15 l1.67 0 q0.32 0 0.52 0.19 t0.2 0.57 l0 1.93 q0 0.42 -0.2 0.615 t-0.52 0.195 l-1.67 0 l0.01 8.04 q0 0.38 -0.22 0.575 t-0.61 0.195 l-2.26 0 q-0.77 0 -0.77 -0.77 l-0.01 -8.04 l-0.73 0 q-0.77 0 -0.77 -0.81 l0 -1.93 q0 -0.76 0.77 -0.76 l0.73 0 z M79.99 14.07 q0 0.74 0.205 1.255 t0.54 0.84 t0.78 0.475 t0.925 0.15 q0.5 0 0.945 -0.175 t0.78 -0.52 t0.53 -0.855 t0.195 -1.17 l0 -8.48 q0 -0.18 0.125 -0.31 t0.335 -0.13 l2.92 0 q0.23 0 0.36 0.135 t0.13 0.305 l0 8.43 q0 1.75 -0.515 2.94 t-1.385 1.915 t-2.015 1.04 t-2.405 0.315 t-2.41 -0.325 t-2.02 -1.06 t-1.385 -1.92 t-0.515 -2.905 l0 -8.43 q0 -0.17 0.115 -0.305 t0.285 -0.135 l3 0 q0.15 0 0.315 0.125 t0.165 0.315 l0 8.48 z M93.14999999999999 16.05 q0.27 0.27 0.585 0.455 t0.605 0.3 t0.51 0.165 t0.3 0.05 q0.19 0 0.485 -0.015 t0.565 -0.09 t0.465 -0.245 t0.195 -0.48 q0 -0.28 -0.11 -0.445 t-0.32 -0.28 t-0.515 -0.205 t-0.685 -0.21 q-1.2 -0.32 -1.98 -0.77 t-1.235 -1.005 t-0.635 -1.195 t-0.18 -1.35 q0 -0.83 0.33 -1.51 t0.94 -1.165 t1.46 -0.75 t1.89 -0.265 q0.63 0 1.18 0.105 t1.05 0.33 t0.975 0.58 t0.945 0.845 q0.17 0.2 0.175 0.375 t-0.225 0.375 q-0.39 0.32 -0.745 0.63 t-0.735 0.69 q-0.12 0.1 -0.24 0.125 t-0.23 -0.005 t-0.21 -0.1 t-0.18 -0.17 q-0.35 -0.39 -0.8 -0.525 t-0.84 -0.135 q-0.49 0 -0.78 0.17 t-0.27 0.52 q0.02 0.26 0.195 0.405 t0.43 0.235 t0.54 0.145 t0.525 0.125 q0.9 0.29 1.65 0.63 t1.3 0.835 t0.855 1.185 t0.305 1.68 t-0.395 1.77 t-1.085 1.31 t-1.635 0.81 t-2.035 0.28 q-0.62 0 -1.26 -0.11 t-1.24 -0.355 t-1.14 -0.63 t-0.96 -0.935 q-0.11 -0.14 -0.165 -0.295 t-0.05 -0.305 t0.06 -0.275 t0.175 -0.215 l1.29 -1.29 q0.24 -0.2 0.425 -0.14 t0.475 0.34 z"></path></g>
			</g>
		</svg>
	