
        <svg xmlns="http://www.w3.org/2000/svg" xmlns:xlink="http://www.w3.org/1999/xlink" version="1.1" width="3206.896551724138" 
        height="2209.2734323299055" viewBox="0 0 3206.896551724138 2209.2734323299055">
			
			<g transform="scale(10.344827586206897) translate(10, 10)">
				<defs id="SvgjsDefs3776"></defs><g id="SvgjsG3777" featureKey="9id2mP-0" transform="matrix(1.6174530130097164,0,0,1.6174530130097164,64.62735089203758,-19.310771732106186)" fill="#62c1bf"><g xmlns="http://www.w3.org/2000/svg"><polygon points="78.268,32.181 57.521,32.181 47.148,50.146 57.521,68.112 78.268,68.112 88.641,50.146  "></polygon><polygon points="21.732,52.129 11.359,70.095 21.732,88.061 42.478,88.061 52.851,70.095 42.478,52.129  "></polygon><polygon points="42.478,47.871 52.851,29.905 42.478,11.939 21.732,11.939 11.359,29.905 21.732,47.871  "></polygon></g></g><g id="SvgjsG3778" featureKey="zfl5BF-0" transform="matrix(2.583749158227759,0,0,2.583749158227759,-3.255523298712621,125.1391812155249)" fill="#ffffff"><path d="M9.7 8.36 c0.86 0.78 1.34 1.9 1.34 3.1 c0 1.22 -0.48 2.32 -1.34 3.12 c-0.4 0.36 -0.86 0.66 -1.38 0.86 c-0.5 0.18 -1.04 0.28 -1.58 0.28 l-3.48 0 l0 4.28 l-2 0 l0 -12.8 l5.48 0 c0.54 0 1.08 0.1 1.58 0.3 c0.52 0.2 0.98 0.48 1.38 0.86 z M6.74 13.719999999999999 c1.1 0 2.3 -0.78 2.3 -2.26 s-1.2 -2.26 -2.3 -2.26 l-3.48 0 l0 4.52 l3.48 0 z M20.58 20 c-0.08 -1.8 -1.22 -2.92 -2.86 -4.28 l-2.76 0 l0 4.28 l-2 0 l0 -12.78 l1.38 0 l0.62 0 l3.48 0 c0.56 0 1.08 0.1 1.6 0.28 c0.5 0.2 0.98 0.5 1.36 0.86 c0.86 0.8 1.34 1.9 1.34 3.1 c0 1.22 -0.48 2.32 -1.34 3.1 c-0.32 0.32 -0.7 0.56 -1.1 0.76 c0.34 0.34 0.66 0.68 0.96 1.08 c0.84 1.08 1.26 2.24 1.32 3.52 l0 0.08 l-2 0 l0 0 z M14.96 13.719999999999999 l3.48 0 c1.12 0 2.3 -0.8 2.3 -2.26 s-1.18 -2.24 -2.3 -2.24 l-3.48 0 l0 4.5 z M34.22 8.9 c0.92 1.14 1.4 2.72 1.4 4.7 s-0.48 3.56 -1.4 4.7 c-0.5 0.62 -1.14 1.08 -1.88 1.4 s-1.58 0.48 -2.52 0.48 s-1.78 -0.16 -2.52 -0.48 s-1.38 -0.78 -1.88 -1.4 c-0.92 -1.14 -1.4 -2.72 -1.4 -4.7 s0.48 -3.56 1.4 -4.7 c0.5 -0.62 1.14 -1.1 1.88 -1.42 s1.58 -0.48 2.52 -0.48 s1.78 0.16 2.52 0.48 s1.38 0.8 1.88 1.42 z M32.68 17.04 c0.62 -0.76 0.94 -1.96 0.94 -3.44 c0 -1.5 -0.32 -2.68 -0.94 -3.44 s-1.58 -1.16 -2.86 -1.16 c-1.26 0 -2.22 0.4 -2.84 1.16 s-0.96 1.94 -0.96 3.44 c0 1.48 0.34 2.68 0.96 3.44 s1.58 1.14 2.84 1.14 c1.28 0 2.24 -0.38 2.86 -1.14 z M43 7.220000000000001 l0 8 c0 1.84 -0.54 3.2 -1.58 4.04 c-0.66 0.54 -1.5 0.86 -2.52 0.92 c-0.16 0.02 -0.32 0.02 -0.48 0.02 c-0.62 0 -1.28 -0.08 -2.04 -0.24 l0.42 -1.96 c1.58 0.34 2.72 0.24 3.36 -0.28 c0.56 -0.46 0.84 -1.28 0.84 -2.5 l0 -6 l-2.68 0 l0 -2 l4.68 0 z M47.52 17.98 l5.42 0 l0 2 l-7.42 0 l0 -12.78 l6.96 0 l0 2 l-4.96 0 l0 2.96 l4.6 0 l0 2 l-4.6 0 l0 3.82 z M63.24 17.42 c0.2 -0.06 0.38 -0.12 0.52 -0.16 l0.58 1.92 c-0.14 0.04 -0.3 0.08 -0.48 0.14 c-0.8 0.26 -2 0.66 -3.28 0.82 c-0.4 0.06 -0.78 0.08 -1.14 0.08 c-1.18 0 -2.14 -0.26 -2.88 -0.8 c-1.14 -0.82 -1.7 -2.2 -1.7 -4.08 l0 -3.54 c0 -1.88 0.56 -3.26 1.7 -4.08 c0.98 -0.7 2.32 -0.96 4.02 -0.72 c1.28 0.16 2.48 0.56 3.28 0.82 c0.18 0.06 0.34 0.1 0.48 0.14 l-0.58 1.92 c-0.14 -0.04 -0.32 -0.1 -0.52 -0.16 c-0.72 -0.24 -1.82 -0.6 -2.92 -0.74 c-1.16 -0.16 -2.04 -0.04 -2.58 0.36 c-0.58 0.42 -0.88 1.26 -0.88 2.46 l0 3.54 c0 1.2 0.3 2.04 0.88 2.46 c0.54 0.4 1.42 0.52 2.58 0.36 c1.1 -0.14 2.2 -0.5 2.92 -0.74 z M74.1 7.199999999999999 l0 2 l-3.12 0 l0 10.8 l-2 0 l0 -10.8 l-3.1 0 l0 -2 l8.22 0 z M84.24 17.42 c0.2 -0.06 0.38 -0.12 0.52 -0.16 l0.58 1.92 c-0.14 0.04 -0.3 0.08 -0.48 0.14 c-0.8 0.26 -2 0.66 -3.28 0.82 c-0.4 0.06 -0.78 0.08 -1.14 0.08 c-1.18 0 -2.14 -0.26 -2.88 -0.8 c-1.14 -0.82 -1.7 -2.2 -1.7 -4.08 l0 -3.54 c0 -1.88 0.56 -3.26 1.7 -4.08 c0.98 -0.7 2.32 -0.96 4.02 -0.72 c1.28 0.16 2.48 0.56 3.28 0.82 c0.18 0.06 0.34 0.1 0.48 0.14 l-0.58 1.92 c-0.14 -0.04 -0.32 -0.1 -0.52 -0.16 c-0.72 -0.24 -1.82 -0.6 -2.92 -0.74 c-1.16 -0.16 -2.04 -0.04 -2.58 0.36 c-0.58 0.42 -0.88 1.26 -0.88 2.46 l0 3.54 c0 1.2 0.3 2.04 0.88 2.46 c0.54 0.4 1.42 0.52 2.58 0.36 c1.1 -0.14 2.2 -0.5 2.92 -0.74 z M96.5 8.9 c0.92 1.14 1.4 2.72 1.4 4.7 s-0.48 3.56 -1.4 4.7 c-0.5 0.62 -1.14 1.08 -1.88 1.4 s-1.58 0.48 -2.52 0.48 s-1.78 -0.16 -2.52 -0.48 s-1.38 -0.78 -1.88 -1.4 c-0.92 -1.14 -1.4 -2.72 -1.4 -4.7 s0.48 -3.56 1.4 -4.7 c0.5 -0.62 1.14 -1.1 1.88 -1.42 s1.58 -0.48 2.52 -0.48 s1.78 0.16 2.52 0.48 s1.38 0.8 1.88 1.42 z M94.96000000000001 17.04 c0.62 -0.76 0.94 -1.96 0.94 -3.44 c0 -1.5 -0.32 -2.68 -0.94 -3.44 s-1.58 -1.16 -2.86 -1.16 c-1.26 0 -2.22 0.4 -2.84 1.16 s-0.96 1.94 -0.96 3.44 c0 1.48 0.34 2.68 0.96 3.44 s1.58 1.14 2.84 1.14 c1.28 0 2.24 -0.38 2.86 -1.14 z M101.4 20 l-2.02 0 l1.32 -12.8 l3.28 0 l2.46 9.86 l2.46 -9.86 l3.28 0 l1.32 12.8 l-2.02 0 l-1.08 -10.62 l-2.8 10.62 l-2.32 0 l-2.78 -10.62 z"></path></g><g id="SvgjsG3779" featureKey="pYXC9J-0" transform="matrix(0.44106784776509855,0,0,0.44106784776509855,64.58539609270393,184.58295680885365)" fill="#62c1bf"><path d="M8.32 5.48 c2.1066 0 3.8634 0.69998 5.27 2.1 s2.11 3.18 2.11 5.34 c0 1.3733 -0.31334 2.63 -0.94 3.77 s-1.51 2.0366 -2.65 2.69 s-2.4034 0.98 -3.79 0.98 c-1.3733 0 -2.6266 -0.32334 -3.76 -0.97 s-2.02 -1.54 -2.66 -2.68 s-0.96 -2.4034 -0.96 -3.79 c0 -2.1066 0.69 -3.8734 2.07 -5.3 s3.15 -2.14 5.31 -2.14 z M2.98 12.92 c0 1.6 0.49998 2.94 1.5 4.02 s2.28 1.62 3.84 1.62 c1.5333 0 2.8066 -0.53334 3.82 -1.6 s1.52 -2.4134 1.52 -4.04 c0 -1.6133 -0.5 -2.9566 -1.5 -4.03 s-2.2866 -1.61 -3.86 -1.61 c-1.52 0 -2.7866 0.53334 -3.8 1.6 s-1.52 2.4134 -1.52 4.04 z M26.868000000000002 5.84 c1.2933 0 2.32 0.32 3.08 0.96 s1.14 1.5 1.14 2.58 c0 1.5333 -0.81334 2.5734 -2.44 3.12 l0 0.04 l0.02 0 c0.92 0.10666 1.6567 0.49 2.21 1.15 s0.83 1.45 0.83 2.37 c0 1.1867 -0.45666 2.14 -1.37 2.86 s-2.09 1.08 -3.53 1.08 l-4.94 0 l0 -14.16 l5 0 z M26.468000000000004 11.72 c0.8 0 1.43 -0.18334 1.89 -0.55 s0.69 -0.89 0.69 -1.57 c0 -0.64 -0.2 -1.1467 -0.6 -1.52 s-0.92666 -0.56 -1.58 -0.56 l-3.08 0 l0 4.2 l2.68 0 z M26.688000000000002 18.32 c0.94666 0 1.68 -0.22 2.2 -0.66 s0.78 -1.02 0.78 -1.74 c0 -0.8 -0.26334 -1.42 -0.79 -1.86 s-1.27 -0.66 -2.23 -0.66 l-2.86 0 l0 4.92 l2.9 0 z M44.215999999999994 5.84 l0 10.2 c0 1.3333 -0.38666 2.3866 -1.16 3.16 s-1.7667 1.16 -2.98 1.16 c-1.04 0 -1.8933 -0.26666 -2.56 -0.8 s-1.0933 -1.3 -1.28 -2.3 l1.88 -0.42 c0.10666 0.53334 0.32666 0.95334 0.66 1.26 s0.76668 0.46 1.3 0.46 c0.74666 0 1.3033 -0.25 1.67 -0.75 s0.55 -1.29 0.55 -2.37 l0 -9.6 l1.92 0 z M60.064 5.84 l0 1.8 l-7.22 0 l0 4.22 l6.72 0 l0 1.8 l-6.72 0 l0 4.54 l7.58 0 l0 1.8 l-9.5 0 l0 -14.16 l9.14 0 z M73.05199999999999 5.48 c1 0 1.9367 0.18664 2.81 0.55998 s1.59 0.92 2.15 1.64 l-1.6 1.22 c-0.86666 -1.08 -2.0066 -1.62 -3.42 -1.62 c-1.5333 0 -2.7966 0.54666 -3.79 1.64 s-1.49 2.4666 -1.49 4.12 c0 1.6 0.49 2.92 1.47 3.96 s2.25 1.56 3.81 1.56 s2.7934 -0.63334 3.7 -1.9 l1.62 1.22 c-0.56 0.74666 -1.3067 1.3467 -2.24 1.8 s-1.9733 0.68 -3.12 0.68 c-1.36 0 -2.5934 -0.33 -3.7 -0.99 s-1.98 -1.5667 -2.62 -2.72 s-0.96 -2.3634 -0.96 -3.63 c0 -2.1866 0.68666 -3.99 2.06 -5.41 s3.1466 -2.13 5.32 -2.13 z M93.48 5.84 l0 1.8 l-4.56 0 l0 12.36 l-1.92 0 l0 -12.36 l-4.56 0 l0 -1.8 l11.04 0 z M100.848 5.84 l0 14.16 l-1.92 0 l0 -14.16 l1.92 0 z M116.796 5.84 l0 1.8 l-6.98 0 l0 4.44 l6.5 0 l0 1.8 l-6.5 0 l0 6.12 l-1.92 0 l0 -14.16 l8.9 0 z M123.22400000000002 5.84 l3.86 6.22 l3.98 -6.22 l2.34 0 l-5.36 8.12 l0 6.04 l-1.92 0 l0 -6.04 l-5.36 -8.12 l2.46 0 z M140.35200000000003 5.84 l0 14.16 l-1.92 0 l0 -14.16 l1.92 0 z M149.92000000000002 5.84 l7.8 11.64 l0.04 0 l0 -11.64 l1.92 0 l0 14.16 l-2.44 0 l-7.88 -11.64 l-0.04 0 l0 11.64 l-1.92 0 l0 -14.16 l2.52 0 z M173.24800000000002 5.48 c2.36 0 4.1134 0.6133 5.26 1.84 l-1.36 1.46 c-1.0533 -1 -2.36 -1.5 -3.92 -1.5 s-2.84 0.53666 -3.84 1.61 s-1.5 2.4166 -1.5 4.03 c0 1.6267 0.53 2.9734 1.59 4.04 s2.3634 1.6 3.91 1.6 c1.4667 0 2.6266 -0.24666 3.48 -0.74 l0 -3.94 l-3.14 0 l0 -1.8 l5.06 0 l0 6.98 c-0.69334 0.41334 -1.53 0.73334 -2.51 0.96 s-1.93 0.34 -2.85 0.34 c-2.2266 0 -4.0466 -0.69334 -5.46 -2.08 s-2.12 -3.1734 -2.12 -5.36 c0 -2.1066 0.69666 -3.8734 2.09 -5.3 s3.1634 -2.14 5.31 -2.14 z M204.10399999999998 5.84 l0 1.8 l-4.56 0 l0 12.36 l-1.92 0 l0 -12.36 l-4.56 0 l0 -1.8 l11.04 0 z M218.692 5.84 l0 1.8 l-7.22 0 l0 4.22 l6.72 0 l0 1.8 l-6.72 0 l0 4.54 l7.58 0 l0 1.8 l-9.5 0 l0 -14.16 l9.14 0 z M231.68 5.48 c1 0 1.9367 0.18664 2.81 0.55998 s1.59 0.92 2.15 1.64 l-1.6 1.22 c-0.86666 -1.08 -2.0066 -1.62 -3.42 -1.62 c-1.5333 0 -2.7966 0.54666 -3.79 1.64 s-1.49 2.4666 -1.49 4.12 c0 1.6 0.49 2.92 1.47 3.96 s2.25 1.56 3.81 1.56 s2.7934 -0.63334 3.7 -1.9 l1.62 1.22 c-0.56 0.74666 -1.3067 1.3467 -2.24 1.8 s-1.9733 0.68 -3.12 0.68 c-1.36 0 -2.5934 -0.33 -3.7 -0.99 s-1.98 -1.5667 -2.62 -2.72 s-0.96 -2.3634 -0.96 -3.63 c0 -2.1866 0.68666 -3.99 2.06 -5.41 s3.1466 -2.13 5.32 -2.13 z M244.58800000000002 5.84 l0 5.88 l7.34 0 l0 -5.88 l1.92 0 l0 14.16 l-1.92 0 l0 -6.48 l-7.34 0 l0 6.48 l-1.92 0 l0 -14.16 l1.92 0 z M263.416 5.84 l7.8 11.64 l0.04 0 l0 -11.64 l1.92 0 l0 14.16 l-2.44 0 l-7.88 -11.64 l-0.04 0 l0 11.64 l-1.92 0 l0 -14.16 l2.52 0 z M286.724 5.48 c2.1066 0 3.8634 0.69998 5.27 2.1 s2.11 3.18 2.11 5.34 c0 1.3733 -0.31334 2.63 -0.94 3.77 s-1.51 2.0366 -2.65 2.69 s-2.4034 0.98 -3.79 0.98 c-1.3733 0 -2.6266 -0.32334 -3.76 -0.97 s-2.02 -1.54 -2.66 -2.68 s-0.96 -2.4034 -0.96 -3.79 c0 -2.1066 0.69 -3.8734 2.07 -5.3 s3.15 -2.14 5.31 -2.14 z M281.384 12.92 c0 1.6 0.49998 2.94 1.5 4.02 s2.28 1.62 3.84 1.62 c1.5333 0 2.8066 -0.53334 3.82 -1.6 s1.52 -2.4134 1.52 -4.04 c0 -1.6133 -0.5 -2.9566 -1.5 -4.03 s-2.2866 -1.61 -3.86 -1.61 c-1.52 0 -2.7866 0.53334 -3.8 1.6 s-1.52 2.4134 -1.52 4.04 z M302.192 5.84 l0 12.36 l6.5 0 l0 1.8 l-8.42 0 l0 -14.16 l1.92 0 z M320.56 5.48 c2.1066 0 3.8634 0.69998 5.27 2.1 s2.11 3.18 2.11 5.34 c0 1.3733 -0.31334 2.63 -0.94 3.77 s-1.51 2.0366 -2.65 2.69 s-2.4034 0.98 -3.79 0.98 c-1.3733 0 -2.6266 -0.32334 -3.76 -0.97 s-2.02 -1.54 -2.66 -2.68 s-0.96 -2.4034 -0.96 -3.79 c0 -2.1066 0.69 -3.8734 2.07 -5.3 s3.15 -2.14 5.31 -2.14 z M315.22 12.92 c0 1.6 0.49998 2.94 1.5 4.02 s2.28 1.62 3.84 1.62 c1.5333 0 2.8066 -0.53334 3.82 -1.6 s1.52 -2.4134 1.52 -4.04 c0 -1.6133 -0.5 -2.9566 -1.5 -4.03 s-2.2866 -1.61 -3.86 -1.61 c-1.52 0 -2.7866 0.53334 -3.8 1.6 s-1.52 2.4134 -1.52 4.04 z M340.628 5.48 c2.36 0 4.1134 0.6133 5.26 1.84 l-1.36 1.46 c-1.0533 -1 -2.36 -1.5 -3.92 -1.5 s-2.84 0.53666 -3.84 1.61 s-1.5 2.4166 -1.5 4.03 c0 1.6267 0.53 2.9734 1.59 4.04 s2.3634 1.6 3.91 1.6 c1.4667 0 2.6266 -0.24666 3.48 -0.74 l0 -3.94 l-3.14 0 l0 -1.8 l5.06 0 l0 6.98 c-0.69334 0.41334 -1.53 0.73334 -2.51 0.96 s-1.93 0.34 -2.85 0.34 c-2.2266 0 -4.0466 -0.69334 -5.46 -2.08 s-2.12 -3.1734 -2.12 -5.36 c0 -2.1066 0.69666 -3.8734 2.09 -5.3 s3.1634 -2.14 5.31 -2.14 z M353.516 5.84 l3.86 6.22 l3.98 -6.22 l2.34 0 l-5.36 8.12 l0 6.04 l-1.92 0 l0 -6.04 l-5.36 -8.12 l2.46 0 z"></path></g>
			</g>
		</svg>
	