
        <svg xmlns="http://www.w3.org/2000/svg" xmlns:xlink="http://www.w3.org/1999/xlink" version="1.1" width="3200" 
        height="2758.2816249715675" viewBox="0 0 3200 2758.2816249715675">
			
			<g transform="scale(10) translate(10, 10)">
				<defs id="SvgjsDefs1016"></defs><g id="SvgjsG1017" featureKey="e7LhAk-0" transform="matrix(9.375,0,0,9.375,37.5,-18.75)" fill="#111111"><path xmlns="http://www.w3.org/2000/svg" d="M18,2H6C4.9,2,4,2.9,4,4v16c0,1.1,0.9,2,2,2h12c1.1,0,2-0.9,2-2V4C20,2.9,19.1,2,18,2z M18,8H6V4h12V8z M9,12H7v-2h2V12z   M13,12h-2v-2h2V12z M9,16H7v-2h2V16z M13,16h-2v-2h2V16z M9,20H7v-2h2V20z M13,20h-2v-2h2V20z M17,12h-2v-2h2V12z M17,16h-2v-2h2  V16z M17,20h-2v-2h2V20z"></path><rect xmlns="http://www.w3.org/2000/svg" x="15" y="5" width="2" height="2"></rect></g><g id="SvgjsG1018" featureKey="Qg0WB5-0" transform="matrix(2.863962022437195,0,0,2.863962022437195,-2.9498821668152124,197.89021414273532)" fill="#111111"><path d="M12.94 6.23 q0.17 0.1 0.25 0.26 t-0.03 0.38 l-1.69 2.4 q-0.11 0.17 -0.235 0.195 t-0.305 -0.085 q-0.49 -0.37 -1.08 -0.57 t-1.25 -0.2 q-0.82 0 -1.51 0.31 t-1.19 0.85 t-0.78 1.26 t-0.28 1.54 t0.28 1.535 t0.78 1.25 t1.19 0.845 t1.51 0.31 q0.66 0 1.26 -0.205 t1.09 -0.575 q0.18 -0.11 0.3 -0.09 t0.24 0.18 l1.71 2.46 q0.11 0.22 0.03 0.37 t-0.25 0.25 q-0.94 0.63 -2.025 0.975 t-2.285 0.345 q-1.06 0 -2.035 -0.27 t-1.825 -0.77 t-1.545 -1.195 t-1.195 -1.54 t-0.77 -1.82 t-0.27 -2.035 t0.27 -2.035 t0.77 -1.83 t1.195 -1.555 t1.545 -1.195 t1.825 -0.77 t2.035 -0.275 q1.2 0 2.265 0.335 t2.005 0.965 z M28.36 19.26 q0 0.17 -0.06 0.325 t-0.2 0.245 q-0.11 0.11 -0.26 0.14 t-0.26 0.03 l-1.97 0 q-0.21 0 -0.34 -0.055 t-0.21 -0.155 t-0.135 -0.245 t-0.115 -0.315 l-0.29 -0.75 q-0.27 0.27 -0.59 0.575 t-0.705 0.565 t-0.835 0.435 t-0.96 0.175 q-0.91 0 -1.745 -0.23 t-1.56 -0.655 t-1.315 -1.02 t-1.015 -1.325 t-0.655 -1.575 t-0.23 -1.765 q0 -1.39 0.51 -2.585 t1.39 -2.08 t2.07 -1.39 t2.55 -0.505 q0.62 0 1.14 0.185 t0.945 0.485 t0.77 0.68 t0.615 0.77 l0.39 -1.21 q0.1 -0.25 0.165 -0.405 t0.14 -0.23 t0.185 -0.1 t0.31 -0.025 l1.49 0 q0.11 0 0.26 0.03 t0.26 0.14 q0.14 0.11 0.2 0.25 t0.06 0.32 l0 11.27 z M18.509999999999998 13.66 q0 0.66 0.205 1.235 t0.585 0.995 t0.915 0.665 t1.185 0.245 q0.67 0 1.245 -0.245 t1 -0.665 t0.665 -0.995 t0.24 -1.235 q0 -0.64 -0.24 -1.22 t-0.665 -1.02 t-1 -0.695 t-1.245 -0.255 q-0.65 0 -1.185 0.255 t-0.915 0.695 t-0.585 1.02 t-0.205 1.22 z M30.76 4.289999999999999 q0 -0.32 0.16 -0.54 t0.55 -0.22 l2.45 0 q0.1 0 0.21 0.055 t0.205 0.155 t0.16 0.24 t0.065 0.31 l0 14.94 q0 0.38 -0.215 0.575 t-0.555 0.195 l-2.32 0 q-0.39 0 -0.55 -0.195 t-0.16 -0.575 l0 -14.94 z M45.09 16.09 q0.14 -0.1 0.265 -0.125 t0.195 -0.025 q0.17 0 0.31 0.07 t0.29 0.3 l1.12 1.69 q0.05 0.08 0.095 0.18 t0.045 0.16 q0 0.23 -0.145 0.375 t-0.315 0.255 q-0.82 0.57 -1.795 0.915 t-2.065 0.345 q-0.9 0 -1.735 -0.23 t-1.555 -0.655 t-1.32 -1.02 t-1.02 -1.325 t-0.655 -1.575 t-0.235 -1.765 t0.235 -1.77 t0.655 -1.575 t1.02 -1.32 t1.32 -1.015 t1.555 -0.65 t1.735 -0.23 q1.09 0 2.015 0.29 t1.735 0.86 l-0.03 -0.03 q0.22 0.13 0.35 0.305 t0.13 0.435 q0 0.18 -0.12 0.37 l-0.89 1.51 q-0.28 0.49 -0.68 0.49 q-0.09 0 -0.22 -0.045 t-0.29 -0.155 q-0.44 -0.29 -0.945 -0.475 t-1.075 -0.185 q-0.63 0 -1.16 0.255 t-0.905 0.695 t-0.585 1.02 t-0.21 1.22 q0 0.66 0.21 1.235 t0.585 0.995 t0.905 0.665 t1.16 0.245 q0.57 0 1.07 -0.2 t0.95 -0.51 z M61.10000000000001 19.83 q-0.13 0.11 -0.275 0.14 t-0.275 0.03 l-1.51 0 q-0.18 0 -0.31 -0.065 t-0.22 -0.175 t-0.15 -0.25 t-0.1 -0.29 l-0.31 -1.28 q-0.15 0.31 -0.435 0.705 t-0.725 0.74 t-1.05 0.58 t-1.4 0.235 q-1.14 0 -2.07 -0.44 t-1.585 -1.2 t-1.015 -1.775 t-0.36 -2.165 l0 -6.55 q0 -0.38 0.165 -0.575 t0.525 -0.195 l2.31 0 q0.43 0 0.59 0.145 t0.16 0.565 l0 6.51 q0 0.43 0.195 0.815 t0.515 0.68 t0.725 0.465 t0.825 0.17 q0.36 0 0.745 -0.17 t0.71 -0.455 t0.535 -0.67 t0.21 -0.815 l0 -6.5 q0 -0.17 0.065 -0.34 t0.195 -0.26 q0.13 -0.08 0.245 -0.11 t0.265 -0.03 l2.26 0 q0.43 0 0.62 0.21 t0.19 0.56 l0 11.19 q0 0.19 -0.085 0.35 t-0.235 0.25 z M63.76000000000001 4.289999999999999 q0 -0.32 0.16 -0.54 t0.55 -0.22 l2.45 0 q0.1 0 0.21 0.055 t0.205 0.155 t0.16 0.24 t0.065 0.31 l0 14.94 q0 0.38 -0.215 0.575 t-0.555 0.195 l-2.32 0 q-0.39 0 -0.55 -0.195 t-0.16 -0.575 l0 -14.94 z M83.03 19.26 q0 0.17 -0.06 0.325 t-0.2 0.245 q-0.11 0.11 -0.26 0.14 t-0.26 0.03 l-1.97 0 q-0.21 0 -0.34 -0.055 t-0.21 -0.155 t-0.135 -0.245 t-0.115 -0.315 l-0.29 -0.75 q-0.27 0.27 -0.59 0.575 t-0.705 0.565 t-0.835 0.435 t-0.96 0.175 q-0.91 0 -1.745 -0.23 t-1.56 -0.655 t-1.315 -1.02 t-1.015 -1.325 t-0.655 -1.575 t-0.23 -1.765 q0 -1.39 0.51 -2.585 t1.39 -2.08 t2.07 -1.39 t2.55 -0.505 q0.62 0 1.14 0.185 t0.945 0.485 t0.77 0.68 t0.615 0.77 l0.39 -1.21 q0.1 -0.25 0.165 -0.405 t0.14 -0.23 t0.185 -0.1 t0.31 -0.025 l1.49 0 q0.11 0 0.26 0.03 t0.26 0.14 q0.14 0.11 0.2 0.25 t0.06 0.32 l0 11.27 z M73.18 13.66 q0 0.66 0.205 1.235 t0.585 0.995 t0.915 0.665 t1.185 0.245 q0.67 0 1.245 -0.245 t1 -0.665 t0.665 -0.995 t0.24 -1.235 q0 -0.64 -0.24 -1.22 t-0.665 -1.02 t-1 -0.695 t-1.245 -0.255 q-0.65 0 -1.185 0.255 t-0.915 0.695 t-0.585 1.02 t-0.205 1.22 z M86.2 5.32 q0 -0.31 0.205 -0.465 t0.585 -0.295 l2.27 -0.79 q0.05 -0.01 0.095 -0.01 l0.085 0 q0.37 0 0.495 0.215 t0.125 0.565 l-0.01 3.15 l1.67 0 q0.32 0 0.52 0.19 t0.2 0.57 l0 1.93 q0 0.42 -0.2 0.615 t-0.52 0.195 l-1.67 0 l0.01 8.04 q0 0.38 -0.22 0.575 t-0.61 0.195 l-2.26 0 q-0.77 0 -0.77 -0.77 l-0.01 -8.04 l-0.73 0 q-0.77 0 -0.77 -0.81 l0 -1.93 q0 -0.76 0.77 -0.76 l0.73 0 z M104.35000000000001 18.48 q-0.88 0.81 -1.98 1.265 t-2.33 0.455 q-1.37 0 -2.59 -0.5 t-2.14 -1.385 t-1.46 -2.085 t-0.54 -2.61 q0 -0.88 0.215 -1.705 t0.61 -1.545 t0.96 -1.325 t1.265 -1.035 t1.52 -0.67 t1.73 -0.24 q0.83 0 1.61 0.22 t1.465 0.62 t1.255 0.96 t0.98 1.225 t0.635 1.42 t0.225 1.555 q0 0.52 -0.015 0.85 t-0.155 0.525 t-0.465 0.27 t-0.955 0.075 l-7.2 0 q0.1 0.64 0.405 1.07 t0.705 0.685 t0.85 0.365 t0.85 0.11 q0.36 0 0.74 -0.075 t0.735 -0.2 t0.65 -0.29 t0.475 -0.345 q0.16 -0.13 0.275 -0.195 t0.245 -0.065 t0.265 0.09 t0.305 0.26 l1.06 1.2 q0.11 0.13 0.14 0.235 t0.03 0.215 q0 0.2 -0.11 0.345 t-0.26 0.255 z M99.54 10.15 q-0.39 0 -0.755 0.155 t-0.685 0.415 t-0.575 0.59 t-0.415 0.67 l5.11 0 q-0.21 -0.39 -0.455 -0.72 t-0.56 -0.58 t-0.72 -0.39 t-0.945 -0.14 z"></path></g>
			</g>
		</svg>
	