
        <svg xmlns="http://www.w3.org/2000/svg" xmlns:xlink="http://www.w3.org/1999/xlink" version="1.1" width="3200" 
        height="2220.8840049787204" viewBox="0 0 3200 2220.8840049787204">
			
			<g transform="scale(10) translate(10, 10)">
				<defs id="SvgjsDefs3300"></defs><g id="SvgjsG3301" featureKey="e7LhAk-0" transform="matrix(2.974184193746752,0,0,2.974184193746752,4.660539279644382,-92.81241845341151)" fill="#111111"><g xmlns="http://www.w3.org/2000/svg"><g><g><g><g><path d="M34.679,59.56c0,1.321-0.943,2.396-2.111,2.396h-3.035h-3.753c-1.169,0-2.129-1.075-2.129-2.396       c0-1.317,0.96-2.374,2.129-2.374h3.753h3.035C33.735,57.186,34.679,58.242,34.679,59.56z"></path><path d="M74.083,64.369v4.355c0,2.469-2.094,4.468-4.638,4.468H34.171c-2.565,0-4.639-1.999-4.639-4.468v-3.81h3.035       c1.754,0,3.299-0.943,4.223-2.356c0.547-0.866,0.849-1.904,0.849-2.999c0-2.939-2.263-5.354-5.071-5.354h-3.035v-4.297h3.035       c2.809,0,5.071-2.413,5.071-5.354c0-2.942-2.263-5.355-5.071-5.355h-3.035v-3.508c0-2.469,2.073-4.485,4.639-4.485h35.274       c2.544,0,4.638,2.017,4.638,4.485V64.369z M70.615,61.145V39.69c0-2.564-0.209-4.658-2.678-4.658H55.305h-8.598       c-2.451,0-4.448,2.094-4.448,4.658v20.135c0.019,0,0.036-0.018,0.075-0.018c5.807-1.584,8.709-2.266,9.369-4.15h0.303       c-0.094-0.073-0.17-0.131-0.245-0.226c-2.471-2.224-4.355-6.562-4.355-10.066c0-4.961,4.053-8.221,7.899-8.221       c3.826,0,7.692,3.525,7.692,8.483c0,3.508-2.093,7.692-4.657,9.859c0.509,2.019,3.413,2.678,9.408,4.32       C69.029,60.164,69.953,60.599,70.615,61.145z M53.475,55.657h0.302c-0.075-0.073-0.169-0.131-0.244-0.226       C53.513,55.508,53.495,55.584,53.475,55.657z"></path><path d="M53.776,55.657h-0.302c0.021-0.073,0.038-0.149,0.058-0.226C53.607,55.526,53.701,55.584,53.776,55.657z"></path><path d="M32.567,42.16c1.168,0,2.111,1.072,2.111,2.395c0,1.318-0.943,2.375-2.111,2.375h-3.035h-3.753       c-1.169,0-2.129-1.057-2.129-2.375c0-1.322,0.96-2.395,2.129-2.395h3.753H32.567z"></path></g></g></g></g></g></g><g id="SvgjsG3302" featureKey="Qg0WB5-0" transform="matrix(3.466204994940181,0,0,3.466204994940181,-3.5701926984348056,131.96706925208122)" fill="#111111"><path d="M12.94 6.23 q0.17 0.1 0.25 0.26 t-0.03 0.38 l-1.69 2.4 q-0.11 0.17 -0.235 0.195 t-0.305 -0.085 q-0.49 -0.37 -1.08 -0.57 t-1.25 -0.2 q-0.82 0 -1.51 0.31 t-1.19 0.85 t-0.78 1.26 t-0.28 1.54 t0.28 1.535 t0.78 1.25 t1.19 0.845 t1.51 0.31 q0.66 0 1.26 -0.205 t1.09 -0.575 q0.18 -0.11 0.3 -0.09 t0.24 0.18 l1.71 2.46 q0.11 0.22 0.03 0.37 t-0.25 0.25 q-0.94 0.63 -2.025 0.975 t-2.285 0.345 q-1.06 0 -2.035 -0.27 t-1.825 -0.77 t-1.545 -1.195 t-1.195 -1.54 t-0.77 -1.82 t-0.27 -2.035 t0.27 -2.035 t0.77 -1.83 t1.195 -1.555 t1.545 -1.195 t1.825 -0.77 t2.035 -0.275 q1.2 0 2.265 0.335 t2.005 0.965 z M14.9 13.66 q0 -0.92 0.235 -1.77 t0.66 -1.575 t1.02 -1.32 t1.325 -1.015 t1.575 -0.65 t1.765 -0.23 q1.36 0 2.555 0.505 t2.08 1.39 t1.4 2.08 t0.515 2.585 q0 0.92 -0.235 1.765 t-0.66 1.575 t-1.02 1.325 t-1.325 1.02 t-1.565 0.655 t-1.745 0.23 q-0.92 0 -1.765 -0.23 t-1.575 -0.655 t-1.325 -1.02 t-1.02 -1.325 t-0.66 -1.575 t-0.235 -1.765 z M18.55 13.66 q0 0.66 0.205 1.235 t0.58 0.995 t0.91 0.665 t1.205 0.245 q0.65 0 1.175 -0.245 t0.89 -0.665 t0.56 -0.995 t0.195 -1.235 q0 -0.64 -0.195 -1.22 t-0.56 -1.02 t-0.89 -0.695 t-1.175 -0.255 q-0.67 0 -1.205 0.255 t-0.91 0.695 t-0.58 1.02 t-0.205 1.22 z M30.28 7.470000000000001 q0.13 -0.11 0.275 -0.14 t0.275 -0.03 l1.51 0 q0.18 0 0.31 0.065 t0.22 0.175 t0.145 0.25 t0.105 0.29 l0.31 1.28 q0.15 -0.31 0.435 -0.705 t0.725 -0.74 t1.045 -0.58 t1.405 -0.235 q1.14 0 2.07 0.44 t1.585 1.2 t1.015 1.775 t0.36 2.165 l0 6.55 q0 0.38 -0.165 0.575 t-0.525 0.195 l-2.31 0 q-0.43 0 -0.59 -0.145 t-0.16 -0.565 l0 -6.51 q0 -0.43 -0.195 -0.815 t-0.515 -0.68 t-0.725 -0.465 t-0.825 -0.17 q-0.36 0 -0.735 0.16 t-0.69 0.445 t-0.53 0.67 t-0.245 0.835 l0 6.5 q0 0.17 -0.065 0.34 t-0.195 0.26 q-0.13 0.08 -0.245 0.11 t-0.265 0.03 l-2.26 0 q-0.43 0 -0.62 -0.21 t-0.19 -0.56 l0 -11.19 q0 -0.19 0.085 -0.35 t0.235 -0.25 z M45.24 5.32 q0 -0.31 0.205 -0.465 t0.585 -0.295 l2.27 -0.79 q0.05 -0.01 0.095 -0.01 l0.085 0 q0.37 0 0.495 0.215 t0.125 0.565 l-0.01 3.15 l1.67 0 q0.32 0 0.52 0.19 t0.2 0.57 l0 1.93 q0 0.42 -0.2 0.615 t-0.52 0.195 l-1.67 0 l0.01 8.04 q0 0.38 -0.22 0.575 t-0.61 0.195 l-2.26 0 q-0.77 0 -0.77 -0.77 l-0.01 -8.04 l-0.73 0 q-0.77 0 -0.77 -0.81 l0 -1.93 q0 -0.76 0.77 -0.76 l0.73 0 z M65.82 19.26 q0 0.17 -0.06 0.325 t-0.2 0.245 q-0.11 0.11 -0.26 0.14 t-0.26 0.03 l-1.97 0 q-0.21 0 -0.34 -0.055 t-0.21 -0.155 t-0.135 -0.245 t-0.115 -0.315 l-0.29 -0.75 q-0.27 0.27 -0.59 0.575 t-0.705 0.565 t-0.835 0.435 t-0.96 0.175 q-0.91 0 -1.745 -0.23 t-1.56 -0.655 t-1.315 -1.02 t-1.015 -1.325 t-0.655 -1.575 t-0.23 -1.765 q0 -1.39 0.51 -2.585 t1.39 -2.08 t2.07 -1.39 t2.55 -0.505 q0.62 0 1.14 0.185 t0.945 0.485 t0.77 0.68 t0.615 0.77 l0.39 -1.21 q0.1 -0.25 0.165 -0.405 t0.14 -0.23 t0.185 -0.1 t0.31 -0.025 l1.49 0 q0.11 0 0.26 0.03 t0.26 0.14 q0.14 0.11 0.2 0.25 t0.06 0.32 l0 11.27 z M55.97 13.66 q0 0.66 0.205 1.235 t0.585 0.995 t0.915 0.665 t1.185 0.245 q0.67 0 1.245 -0.245 t1 -0.665 t0.665 -0.995 t0.24 -1.235 q0 -0.64 -0.24 -1.22 t-0.665 -1.02 t-1 -0.695 t-1.245 -0.255 q-0.65 0 -1.185 0.255 t-0.915 0.695 t-0.585 1.02 t-0.205 1.22 z M76.35 16.09 q0.14 -0.1 0.265 -0.125 t0.195 -0.025 q0.17 0 0.31 0.07 t0.29 0.3 l1.12 1.69 q0.05 0.08 0.095 0.18 t0.045 0.16 q0 0.23 -0.145 0.375 t-0.315 0.255 q-0.82 0.57 -1.795 0.915 t-2.065 0.345 q-0.9 0 -1.735 -0.23 t-1.555 -0.655 t-1.32 -1.02 t-1.02 -1.325 t-0.655 -1.575 t-0.235 -1.765 t0.235 -1.77 t0.655 -1.575 t1.02 -1.32 t1.32 -1.015 t1.555 -0.65 t1.735 -0.23 q1.09 0 2.015 0.29 t1.735 0.86 l-0.03 -0.03 q0.22 0.13 0.35 0.305 t0.13 0.435 q0 0.18 -0.12 0.37 l-0.89 1.51 q-0.28 0.49 -0.68 0.49 q-0.09 0 -0.22 -0.045 t-0.29 -0.155 q-0.44 -0.29 -0.945 -0.475 t-1.075 -0.185 q-0.63 0 -1.16 0.255 t-0.905 0.695 t-0.585 1.02 t-0.21 1.22 q0 0.66 0.21 1.235 t0.585 0.995 t0.905 0.665 t1.16 0.245 q0.57 0 1.07 -0.2 t0.95 -0.51 z M81.33999999999999 5.32 q0 -0.31 0.205 -0.465 t0.585 -0.295 l2.27 -0.79 q0.05 -0.01 0.095 -0.01 l0.085 0 q0.37 0 0.495 0.215 t0.125 0.565 l-0.01 3.15 l1.67 0 q0.32 0 0.52 0.19 t0.2 0.57 l0 1.93 q0 0.42 -0.2 0.615 t-0.52 0.195 l-1.67 0 l0.01 8.04 q0 0.38 -0.22 0.575 t-0.61 0.195 l-2.26 0 q-0.77 0 -0.77 -0.77 l-0.01 -8.04 l-0.73 0 q-0.77 0 -0.77 -0.81 l0 -1.93 q0 -0.76 0.77 -0.76 l0.73 0 z"></path></g>
			</g>
		</svg>
	