
        <svg xmlns="http://www.w3.org/2000/svg" xmlns:xlink="http://www.w3.org/1999/xlink" version="1.1" width="3200" 
        height="2680.2065451938256" viewBox="0 0 3200 2680.2065451938256">
			
			<g transform="scale(10) translate(10, 10)">
				<defs id="SvgjsDefs2066"></defs><g id="SvgjsG2067" featureKey="e7LhAk-0" transform="matrix(2.142857142857143,0,0,2.142857142857143,42.85714285714286,-32.14285714285714)" fill="#111111"><title xmlns="http://www.w3.org/2000/svg">newspaper</title><desc xmlns="http://www.w3.org/2000/svg">Created with Sketch.</desc><g xmlns="http://www.w3.org/2000/svg" stroke="none" stroke-width="1" fill="none" fill-rule="evenodd" xmlns:sketch="http://www.bohemiancoding.com/sketch/ns" sketch:type="MSPage"><g sketch:type="MSArtboardGroup" fill="#111111"><path d="M50,35 C55.5228475,35 60,30.5228475 60,25 C60,19.4771525 55.5228475,15 50,15 C44.4771525,15 40,19.4771525 40,25 C40,30.5228475 44.4771525,35 50,35 L50,35 Z M85,50 L85,55 C85,57.7614237 82.7614237,60 80,60 L80,52.5 L80,45 C82.7614237,45 85,47.2385763 85,50 L85,50 Z M15,55 L15,50 C15,47.2385763 17.2385763,45 20,45 L20,52.5 L20,60 C17.2385763,60 15,57.7614237 15,55 L15,55 Z M80,60 L80,75 C60,75 50,85 50,85 C50,85 40,75 20,75 C20,75 20,68.2023505 20,60 L20,60 C22.7558048,60 25,57.7614237 25,55 C25,52.2441952 22.7614237,50 20,49.9799346 C20,43.9922213 20,38.3642756 20,35 C40,35 50,45 50,45 C50,45 60,35 80,35 L80,50 C77.2441952,50 75,52.2385763 75,55 C75,57.7558048 77.2385763,60 80,60 L80,60 Z" sketch:type="MSShapeGroup"></path></g></g></g><g id="SvgjsG2068" featureKey="Qg0WB5-0" transform="matrix(5.1635116622397135,0,0,5.1635116622397135,-8.519794735126373,143.40791690918886)" fill="#111111"><path d="M1.65 5.59 q0 -0.18 0.11 -0.31 t0.33 -0.13 l3.27 0 q0.14 0 0.29 0.07 t0.26 0.24 q1.27 2.05 2.52 4.04 t2.53 4.04 l0 -8.01 q0.04 -0.18 0.16 -0.28 t0.28 -0.1 l2.85 0 q0.21 0 0.35 0.115 t0.14 0.325 l0 14.02 q0 0.2 -0.12 0.295 t-0.33 0.095 l-3.19 0 q-0.13 0 -0.23 -0.09 t-0.21 -0.24 q-1.33 -2.2 -2.63 -4.35 t-2.64 -4.35 l0 8.59 q0 0.22 -0.1 0.33 t-0.36 0.11 l-2.84 0 q-0.23 0 -0.335 -0.125 t-0.105 -0.305 l0 -13.98 z M28.23 18.48 q-0.88 0.81 -1.98 1.265 t-2.33 0.455 q-1.37 0 -2.59 -0.5 t-2.14 -1.385 t-1.46 -2.085 t-0.54 -2.61 q0 -0.88 0.215 -1.705 t0.61 -1.545 t0.96 -1.325 t1.265 -1.035 t1.52 -0.67 t1.73 -0.24 q0.83 0 1.61 0.22 t1.465 0.62 t1.255 0.96 t0.98 1.225 t0.635 1.42 t0.225 1.555 q0 0.52 -0.015 0.85 t-0.155 0.525 t-0.465 0.27 t-0.955 0.075 l-7.2 0 q0.1 0.64 0.405 1.07 t0.705 0.685 t0.85 0.365 t0.85 0.11 q0.36 0 0.74 -0.075 t0.735 -0.2 t0.65 -0.29 t0.475 -0.345 q0.16 -0.13 0.275 -0.195 t0.245 -0.065 t0.265 0.09 t0.305 0.26 l1.06 1.2 q0.11 0.13 0.14 0.235 t0.03 0.215 q0 0.2 -0.11 0.345 t-0.26 0.255 z M23.42 10.15 q-0.39 0 -0.755 0.155 t-0.685 0.415 t-0.575 0.59 t-0.415 0.67 l5.11 0 q-0.21 -0.39 -0.455 -0.72 t-0.56 -0.58 t-0.72 -0.39 t-0.945 -0.14 z M30.25 8.29 q-0.2 -0.41 -0.075 -0.7 t0.595 -0.29 l2.56 0 q0.26 0 0.455 0.14 t0.275 0.4 q0.17 0.53 0.375 1.185 t0.43 1.335 t0.445 1.35 t0.405 1.235 t0.33 0.985 t0.215 0.6 l2.12 -6.69 q0.13 -0.32 0.295 -0.43 t0.465 -0.11 l2.37 0 q0.29 0 0.44 0.07 t0.2 0.19 t0.02 0.275 t-0.1 0.325 l-1.1 2.69 q0.07 0.17 0.27 0.575 t0.455 0.92 t0.52 1.08 t0.445 1.055 l2.45 -6.64 q0.13 -0.32 0.265 -0.43 t0.405 -0.11 l2.21 0 q0.48 0 0.66 0.18 t0.02 0.68 l-4.69 11.41 q-0.09 0.18 -0.275 0.305 t-0.535 0.125 l-1.05 0 q-0.39 0 -0.57 -0.125 t-0.29 -0.325 l-1.86 -4.54 l-1.83 4.56 q-0.11 0.18 -0.26 0.305 t-0.45 0.125 l-1.19 0 q-0.4 0 -0.565 -0.115 t-0.245 -0.315 z M52.21 16.05 q0.27 0.27 0.585 0.455 t0.605 0.3 t0.51 0.165 t0.3 0.05 q0.19 0 0.485 -0.015 t0.565 -0.09 t0.465 -0.245 t0.195 -0.48 q0 -0.28 -0.11 -0.445 t-0.32 -0.28 t-0.515 -0.205 t-0.685 -0.21 q-1.2 -0.32 -1.98 -0.77 t-1.235 -1.005 t-0.635 -1.195 t-0.18 -1.35 q0 -0.83 0.33 -1.51 t0.94 -1.165 t1.46 -0.75 t1.89 -0.265 q0.63 0 1.18 0.105 t1.05 0.33 t0.975 0.58 t0.945 0.845 q0.17 0.2 0.175 0.375 t-0.225 0.375 q-0.39 0.32 -0.745 0.63 t-0.735 0.69 q-0.12 0.1 -0.24 0.125 t-0.23 -0.005 t-0.21 -0.1 t-0.18 -0.17 q-0.35 -0.39 -0.8 -0.525 t-0.84 -0.135 q-0.49 0 -0.78 0.17 t-0.27 0.52 q0.02 0.26 0.195 0.405 t0.43 0.235 t0.54 0.145 t0.525 0.125 q0.9 0.29 1.65 0.63 t1.3 0.835 t0.855 1.185 t0.305 1.68 t-0.395 1.77 t-1.085 1.31 t-1.635 0.81 t-2.035 0.28 q-0.62 0 -1.26 -0.11 t-1.24 -0.355 t-1.14 -0.63 t-0.96 -0.935 q-0.11 -0.14 -0.165 -0.295 t-0.05 -0.305 t0.06 -0.275 t0.175 -0.215 l1.29 -1.29 q0.24 -0.2 0.425 -0.14 t0.475 0.34 z"></path></g>
			</g>
		</svg>
	