
        <svg xmlns="http://www.w3.org/2000/svg" xmlns:xlink="http://www.w3.org/1999/xlink" version="1.1" width="3200" 
        height="3016.684373892494" viewBox="0 0 3200 3016.684373892494">
			
			<g transform="scale(10.000000000000002) translate(10, 10)">
				<defs id="SvgjsDefs1622"></defs><g id="SvgjsG1623" featureKey="e7LhAk-0" transform="matrix(0.046353522867737945,0,0,0.046353522867737945,75,0)" fill="#111111"><defs xmlns="http://www.w3.org/2000/svg"></defs><g xmlns="http://www.w3.org/2000/svg"><path class="fil0" d="M207 0l2822 0c114,0 207,93 207,207l0 3658c0,114 -93,207 -207,207l-2822 0c-114,0 -207,-93 -207,-207l0 -246 0 -352 297 0c29,27 69,44 112,44 92,0 166,-74 166,-166 0,-92 -74,-166 -166,-166 -43,0 -83,17 -112,44l-297 0 0 -560 297 0c29,27 69,44 112,44 92,0 166,-75 166,-166 0,-92 -74,-166 -166,-166 -43,0 -83,16 -112,44l-297 0 0 -561 297 0c29,28 69,44 112,44 92,0 166,-74 166,-166 0,-91 -74,-166 -166,-166 -43,0 -83,17 -112,44l-297 0 0 -560 297 0c29,27 69,44 112,44 92,0 166,-74 166,-166 0,-92 -74,-166 -166,-166 -43,0 -83,16 -112,44l-297 0 0 -166 0 -237c0,-114 93,-207 207,-207zm1471 982c0,105 20,164 82,265 49,63 96,92 142,88 45,4 92,-25 141,-88 63,-101 82,-160 82,-265 0,-306 -447,-305 -447,0zm759 842c0,0 0,-128 -15,-246 -15,-118 -243,-166 -328,-199 -28,-10 -42,-27 -50,-42 -40,36 -87,62 -142,59 -55,3 -102,-22 -141,-58 -8,14 -22,30 -52,41 -85,33 -313,81 -328,199 -15,118 -15,246 -15,246l148 0 0 -34c0,-12 10,-23 23,-23l0 0c13,0 23,11 23,23l0 34 683 0 0 -34c0,-12 10,-23 23,-23l0 0c13,0 23,11 23,23l0 34 148 0zm-1187 -1206l1303 0c72,0 130,59 130,130l0 1080c0,72 -58,130 -130,130l-1303 0c-71,0 -130,-58 -130,-130l0 -1080c0,-71 59,-130 130,-130zm-55 1897l1413 0c40,0 73,32 73,73l0 127c0,40 -33,73 -73,73l-1413 0c-40,0 -73,-33 -73,-73l0 -127c0,-41 33,-73 73,-73zm0 665l1413 0c40,0 73,33 73,73l0 128c0,40 -33,73 -73,73l-1413 0c-40,0 -73,-33 -73,-73l0 -128c0,-40 33,-73 73,-73z" style="fill: #111111;"></path></g></g><g id="SvgjsG1624" featureKey="Qg0WB5-0" transform="matrix(3.232581251676545,0,0,3.232581251676545,-5.26910395663519,201.72669218372778)" fill="#111111"><path d="M1.63 5.609999999999999 q0 -0.21 0.11 -0.335 t0.33 -0.125 l6.46 0 q1.03 0 1.93 0.385 t1.57 1.045 t1.055 1.545 t0.385 1.885 q0 0.68 -0.185 1.295 t-0.515 1.15 t-0.785 0.97 t-0.995 0.745 l2.57 4.84 q0.07 0.14 0.18 0.33 t0.11 0.33 q0 0.16 -0.105 0.245 t-0.285 0.085 l-3.43 0 q-0.17 0 -0.305 -0.1 t-0.175 -0.27 l-2.43 -4.57 l-1.62 0 l0 4.51 q0 0.43 -0.46 0.43 l-2.97 0 q-0.2 0 -0.32 -0.105 t-0.12 -0.325 l0 -13.96 z M9.46 10.05 q0 -0.3 -0.11 -0.6 t-0.31 -0.55 t-0.48 -0.42 t-0.62 -0.22 q-0.28 -0.02 -0.525 -0.035 t-0.535 -0.015 l-1.38 0 l0 3.67 l1.84 0 q0.18 0 0.32 -0.01 t0.31 -0.03 q0.35 -0.04 0.63 -0.205 t0.47 -0.41 t0.29 -0.55 t0.1 -0.625 z M25.29 18.48 q-0.88 0.81 -1.98 1.265 t-2.33 0.455 q-1.37 0 -2.59 -0.5 t-2.14 -1.385 t-1.46 -2.085 t-0.54 -2.61 q0 -0.88 0.215 -1.705 t0.61 -1.545 t0.96 -1.325 t1.265 -1.035 t1.52 -0.67 t1.73 -0.24 q0.83 0 1.61 0.22 t1.465 0.62 t1.255 0.96 t0.98 1.225 t0.635 1.42 t0.225 1.555 q0 0.52 -0.015 0.85 t-0.155 0.525 t-0.465 0.27 t-0.955 0.075 l-7.2 0 q0.1 0.64 0.405 1.07 t0.705 0.685 t0.85 0.365 t0.85 0.11 q0.36 0 0.74 -0.075 t0.735 -0.2 t0.65 -0.29 t0.475 -0.345 q0.16 -0.13 0.275 -0.195 t0.245 -0.065 t0.265 0.09 t0.305 0.26 l1.06 1.2 q0.11 0.13 0.14 0.235 t0.03 0.215 q0 0.2 -0.11 0.345 t-0.26 0.255 z M20.48 10.15 q-0.39 0 -0.755 0.155 t-0.685 0.415 t-0.575 0.59 t-0.415 0.67 l5.11 0 q-0.21 -0.39 -0.455 -0.72 t-0.56 -0.58 t-0.72 -0.39 t-0.945 -0.14 z M38.01 19.56 q0.11 -0.34 0.105 -0.775 t-0.005 -0.885 q-0.29 0.31 -0.59 0.655 t-0.665 0.64 t-0.825 0.485 t-1.07 0.19 q-1.35 0 -2.5 -0.46 t-1.99 -1.285 t-1.31 -1.975 t-0.47 -2.53 q0 -1.37 0.47 -2.565 t1.31 -2.08 t1.99 -1.39 t2.5 -0.505 q0.62 0 1.115 0.19 t0.9 0.49 t0.74 0.675 t0.635 0.745 l0.38 -1.19 q0.06 -0.17 0.11 -0.31 t0.13 -0.235 t0.205 -0.145 t0.325 -0.05 l1.49 0 q0.11 0 0.255 0.03 t0.255 0.14 q0.14 0.11 0.21 0.24 t0.07 0.33 l0 10.18 q0 1.56 -0.51 2.78 t-1.395 2.06 t-2.095 1.28 t-2.6 0.44 q-0.54 0 -1.16 -0.095 t-1.235 -0.285 t-1.19 -0.485 t-1.015 -0.685 q-0.12 -0.09 -0.21 -0.21 t-0.125 -0.27 t0 -0.325 t0.165 -0.365 l0.95 -1.31 q0.26 -0.28 0.49 -0.3 t0.58 0.24 q0.25 0.24 0.575 0.385 t0.67 0.23 t0.68 0.11 t0.605 0.025 q0.45 0 0.94 -0.12 t0.915 -0.355 t0.75 -0.575 t0.445 -0.78 z M32.29 13.620000000000001 q0 0.67 0.205 1.245 t0.585 0.995 t0.915 0.66 t1.185 0.24 q0.64 0 1.205 -0.225 t0.985 -0.625 t0.675 -0.94 t0.285 -1.17 l0 -0.33 q-0.03 -0.61 -0.285 -1.155 t-0.675 -0.96 t-0.985 -0.66 t-1.205 -0.245 q-0.65 0 -1.185 0.255 t-0.915 0.685 t-0.585 1.01 t-0.205 1.22 z M44.17 8.08 q0 -0.32 0.18 -0.55 t0.56 -0.23 l2.29 0 q0.12 0 0.26 0.055 t0.26 0.16 t0.205 0.245 t0.085 0.32 l0 11.15 q0 0.38 -0.21 0.575 t-0.6 0.195 l-2.29 0 q-0.74 0 -0.74 -0.77 l0 -11.15 z M44.17 3.0199999999999996 q0 -0.42 0.18 -0.595 t0.56 -0.175 l2.32 0 q0.35 0 0.565 0.175 t0.215 0.595 l0 1.95 q0 0.12 -0.055 0.26 t-0.155 0.27 t-0.245 0.215 t-0.325 0.085 l-2.32 0 q-0.74 0 -0.74 -0.83 l0 -1.95 z M52.31000000000001 16.05 q0.27 0.27 0.585 0.455 t0.605 0.3 t0.51 0.165 t0.3 0.05 q0.19 0 0.485 -0.015 t0.565 -0.09 t0.465 -0.245 t0.195 -0.48 q0 -0.28 -0.11 -0.445 t-0.32 -0.28 t-0.515 -0.205 t-0.685 -0.21 q-1.2 -0.32 -1.98 -0.77 t-1.235 -1.005 t-0.635 -1.195 t-0.18 -1.35 q0 -0.83 0.33 -1.51 t0.94 -1.165 t1.46 -0.75 t1.89 -0.265 q0.63 0 1.18 0.105 t1.05 0.33 t0.975 0.58 t0.945 0.845 q0.17 0.2 0.175 0.375 t-0.225 0.375 q-0.39 0.32 -0.745 0.63 t-0.735 0.69 q-0.12 0.1 -0.24 0.125 t-0.23 -0.005 t-0.21 -0.1 t-0.18 -0.17 q-0.35 -0.39 -0.8 -0.525 t-0.84 -0.135 q-0.49 0 -0.78 0.17 t-0.27 0.52 q0.02 0.26 0.195 0.405 t0.43 0.235 t0.54 0.145 t0.525 0.125 q0.9 0.29 1.65 0.63 t1.3 0.835 t0.855 1.185 t0.305 1.68 t-0.395 1.77 t-1.085 1.31 t-1.635 0.81 t-2.035 0.28 q-0.62 0 -1.26 -0.11 t-1.24 -0.355 t-1.14 -0.63 t-0.96 -0.935 q-0.11 -0.14 -0.165 -0.295 t-0.05 -0.305 t0.06 -0.275 t0.175 -0.215 l1.29 -1.29 q0.24 -0.2 0.425 -0.14 t0.475 0.34 z M62.760000000000005 5.32 q0 -0.31 0.205 -0.465 t0.585 -0.295 l2.27 -0.79 q0.05 -0.01 0.095 -0.01 l0.085 0 q0.37 0 0.495 0.215 t0.125 0.565 l-0.01 3.15 l1.67 0 q0.32 0 0.52 0.19 t0.2 0.57 l0 1.93 q0 0.42 -0.2 0.615 t-0.52 0.195 l-1.67 0 l0.01 8.04 q0 0.38 -0.22 0.575 t-0.61 0.195 l-2.26 0 q-0.77 0 -0.77 -0.77 l-0.01 -8.04 l-0.73 0 q-0.77 0 -0.77 -0.81 l0 -1.93 q0 -0.76 0.77 -0.76 l0.73 0 z M80.91000000000001 18.48 q-0.88 0.81 -1.98 1.265 t-2.33 0.455 q-1.37 0 -2.59 -0.5 t-2.14 -1.385 t-1.46 -2.085 t-0.54 -2.61 q0 -0.88 0.215 -1.705 t0.61 -1.545 t0.96 -1.325 t1.265 -1.035 t1.52 -0.67 t1.73 -0.24 q0.83 0 1.61 0.22 t1.465 0.62 t1.255 0.96 t0.98 1.225 t0.635 1.42 t0.225 1.555 q0 0.52 -0.015 0.85 t-0.155 0.525 t-0.465 0.27 t-0.955 0.075 l-7.2 0 q0.1 0.64 0.405 1.07 t0.705 0.685 t0.85 0.365 t0.85 0.11 q0.36 0 0.74 -0.075 t0.735 -0.2 t0.65 -0.29 t0.475 -0.345 q0.16 -0.13 0.275 -0.195 t0.245 -0.065 t0.265 0.09 t0.305 0.26 l1.06 1.2 q0.11 0.13 0.14 0.235 t0.03 0.215 q0 0.2 -0.11 0.345 t-0.26 0.255 z M76.10000000000001 10.15 q-0.39 0 -0.755 0.155 t-0.685 0.415 t-0.575 0.59 t-0.415 0.67 l5.11 0 q-0.21 -0.39 -0.455 -0.72 t-0.56 -0.58 t-0.72 -0.39 t-0.945 -0.14 z M84.43 8.04 q0 -0.17 0.075 -0.325 t0.185 -0.245 q0.26 -0.17 0.54 -0.17 l1.51 0 q0.19 0 0.3 0.07 t0.185 0.18 t0.13 0.25 t0.135 0.28 q0.02 0.04 0.08 0.195 t0.13 0.34 t0.135 0.35 t0.085 0.215 q0.3 -0.33 0.575 -0.695 t0.585 -0.675 t0.69 -0.51 t0.9 -0.2 q0.54 0 0.965 0.08 t0.805 0.235 t0.755 0.395 t0.815 0.56 q0.69 0.37 0.26 1.1 l-0.91 1.55 q-0.2 0.3 -0.49 0.37 t-0.63 -0.09 q-0.43 -0.42 -0.875 -0.625 t-1.015 -0.205 q-0.39 0 -0.685 0.11 t-0.535 0.31 t-0.45 0.48 t-0.42 0.62 l0 7.24 q0 0.38 -0.185 0.575 t-0.615 0.195 l-2.25 0 q-0.78 0 -0.78 -0.77 l0 -11.19 z"></path></g>
			</g>
		</svg>
	